<svg width="363" height="235" viewBox="0 0 363 235" fill="none" xmlns="http://www.w3.org/2000/svg">
<g clip-path="url(#clip0_1_2)">
<rect width="363" height="235"/>
<path d="M89 11C89 4.92486 93.9249 0 100 0H169C175.075 0 180 4.92487 180 11V235H100C93.9249 235 89 230.075 89 224V11Z" fill="#4637f3"/>
<path fill-rule="evenodd" clip-rule="evenodd" d="M100 0C93.9249 0 89 4.92487 89 11V224C89 230.075 93.9249 235 100 235H180V233.782L90.2328 15.1785C87.2604 7.93988 92.5833 0 100.408 0H100Z" fill="#9C6BFE"/>
<g style="mix-blend-mode:darken">
<path d="M272.227 6.89599C273.902 2.72963 277.942 0 282.433 0H351.592C359.417 0 364.74 7.93988 361.767 15.1784L271.5 235H180.5L272.227 6.89599Z" fill="#07D2DD"/>
</g>
</g>
<defs>
<clipPath id="clip0_1_2">
<rect width="363" height="235" fill="white"/>
</clipPath>
</defs>
</svg>
