<svg width="938" height="235" viewBox="0 0 938 235" fill="none" xmlns="http://www.w3.org/2000/svg">
<rect width="938" height="235" fill="white"/>
<path d="M0 11C0 4.92486 4.92487 0 11 0H80C86.0751 0 91 4.92487 91 11V235H11C4.92487 235 0 230.075 0 224V11Z" fill="#4637F3"/>
<path fill-rule="evenodd" clip-rule="evenodd" d="M11 0C4.92487 0 0 4.92486 0 11V224C0 230.075 4.92487 235 11 235H91V233.782L1.23285 15.1784C-1.73958 7.93988 3.58324 0 11.4083 0H11Z" fill="#9C6BFE"/>
<g style="mix-blend-mode:darken">
<path d="M183.227 6.89599C184.902 2.72963 188.942 0 193.433 0H262.592C270.417 0 275.74 7.93988 272.767 15.1784L182.5 235H91.5L183.227 6.89599Z" fill="#07D2DD"/>
</g>
<path d="M370.659 177V58.7912H392.073V159.049H444.136V177H370.659Z" fill="black"/>
<path d="M461.798 177V88.3434H482.692V177H461.798ZM472.303 75.7606C468.993 75.7606 466.146 74.664 463.76 72.4706C461.375 70.2388 460.182 67.5645 460.182 64.4477C460.182 61.2924 461.375 58.6181 463.76 56.4247C466.146 54.1929 468.993 53.077 472.303 53.077C475.65 53.077 478.498 54.1929 480.845 56.4247C483.231 58.6181 484.424 61.2924 484.424 64.4477C484.424 67.5645 483.231 70.2388 480.845 72.4706C478.498 74.664 475.65 75.7606 472.303 75.7606Z" fill="black"/>
<path d="M505.102 177V58.7912H525.996V103.004H526.862C527.939 100.849 529.459 98.5597 531.421 96.1355C533.384 93.6728 536.039 91.5757 539.387 89.8441C542.734 88.0741 547.006 87.189 552.2 87.189C559.05 87.189 565.226 88.9398 570.728 92.4415C576.269 95.9046 580.656 101.042 583.888 107.852C587.159 114.625 588.794 122.936 588.794 132.787C588.794 142.522 587.197 150.796 584.004 157.606C580.81 164.417 576.462 169.612 570.959 173.191C565.457 176.769 559.223 178.558 552.258 178.558C547.179 178.558 542.965 177.712 539.618 176.019C536.27 174.326 533.576 172.286 531.537 169.901C529.536 167.476 527.978 165.187 526.862 163.032H525.65V177H505.102ZM525.592 132.672C525.592 138.405 526.4 143.427 528.016 147.736C529.671 152.046 532.037 155.413 535.116 157.837C538.232 160.223 542.003 161.416 546.428 161.416C551.046 161.416 554.913 160.184 558.03 157.722C561.147 155.221 563.494 151.815 565.072 147.506C566.688 143.157 567.496 138.213 567.496 132.672C567.496 127.169 566.707 122.282 565.129 118.011C563.552 113.74 561.205 110.392 558.088 107.968C554.971 105.544 551.084 104.332 546.428 104.332C541.965 104.332 538.175 105.505 535.058 107.852C531.941 110.2 529.574 113.49 527.958 117.722C526.381 121.955 525.592 126.938 525.592 132.672Z" fill="black"/>
<path d="M682.732 88.3434L651.16 177H628.072L596.5 88.3434H618.779L639.154 154.201H640.078L660.51 88.3434H682.732Z" fill="black"/>
<path d="M753.698 139.713V88.3434H774.592V177H754.333V161.243H753.409C751.408 166.207 748.118 170.266 743.539 173.421C738.999 176.577 733.4 178.154 726.743 178.154C720.933 178.154 715.796 176.865 711.332 174.287C706.907 171.671 703.444 167.88 700.943 162.917C698.441 157.914 697.191 151.873 697.191 144.793V88.3434H718.085V141.56C718.085 147.178 719.624 151.642 722.703 154.951C725.781 158.261 729.821 159.915 734.824 159.915C737.902 159.915 740.884 159.165 743.77 157.664C746.656 156.163 749.023 153.932 750.87 150.969C752.755 147.967 753.698 144.216 753.698 139.713Z" fill="black"/>
<path d="M835.327 178.732C826.438 178.732 818.762 176.885 812.297 173.191C805.871 169.458 800.927 164.186 797.463 157.375C794 150.526 792.269 142.465 792.269 133.191C792.269 124.072 794 116.068 797.463 109.18C800.965 102.254 805.852 96.8666 812.124 93.0187C818.396 89.1322 825.765 87.189 834.23 87.189C839.695 87.189 844.851 88.0741 849.699 89.8441C854.586 91.5757 858.896 94.2692 862.628 97.9248C866.399 101.58 869.362 106.236 871.517 111.893C873.672 117.511 874.749 124.206 874.749 131.979V138.386H802.081V124.302H854.721C854.682 120.301 853.817 116.741 852.123 113.624C850.43 110.469 848.064 107.987 845.024 106.179C842.023 104.37 838.521 103.466 834.519 103.466C830.248 103.466 826.496 104.505 823.264 106.583C820.032 108.622 817.511 111.316 815.703 114.663C813.933 117.973 813.028 121.609 812.99 125.572V137.866C812.99 143.023 813.933 147.448 815.818 151.142C817.704 154.797 820.339 157.606 823.726 159.569C827.112 161.493 831.075 162.455 835.616 162.455C838.656 162.455 841.407 162.031 843.87 161.185C846.332 160.3 848.468 159.011 850.276 157.318C852.085 155.625 853.451 153.528 854.374 151.026L873.884 153.22C872.652 158.376 870.305 162.878 866.842 166.726C863.417 170.535 859.03 173.498 853.682 175.615C848.333 177.693 842.215 178.732 835.327 178.732Z" fill="black"/>
</svg>
