<?xml version="1.0" encoding="UTF-8"?>
<svg viewBox="0 0 916 331" width="180" xmlns="http://www.w3.org/2000/svg">
    <style>
        .libvue-logo-fill {
            fill: #000;
        }
        @media (prefers-color-scheme: dark) {
            .libvue-logo-fill {
                fill: #fff;
            }
        }
    </style>
    <path fill-rule="evenodd" clip-rule="evenodd" d="M0 0H331V331H0V0ZM98 80H159V252H98V80ZM234 218.5C234 201.655 220.345 188 203.5 188C186.655 188 173 201.655 173 218.5V221.5C173 238.345 186.655 252 203.5 252C220.345 252 234 238.345 234 221.5V218.5Z" class="libvue-logo-fill"/>
    <rect x="508" y="107" width="24" height="23" rx="11.5" transform="rotate(90 508 107)" class="libvue-logo-fill"/>
    <path d="M410 214.909V116H430.912V197.668H473.315V214.909H410Z" class="libvue-logo-fill"/>
    <path d="M486.778 214.909V140.727H507.352V214.909H486.778Z" class="libvue-logo-fill"/>
    <path d="M524.219 214.909V116H544.793V153.188H545.42C546.322 151.191 547.626 149.163 549.332 147.102C551.071 145.009 553.325 143.271 556.094 141.886C558.895 140.47 562.372 139.761 566.526 139.761C571.935 139.761 576.925 141.178 581.497 144.011C586.069 146.813 589.723 151.046 592.46 156.713C595.197 162.348 596.565 169.415 596.565 177.915C596.565 186.189 595.229 193.176 592.557 198.875C589.917 204.542 586.311 208.84 581.739 211.77C577.199 214.668 572.112 216.116 566.477 216.116C562.485 216.116 559.088 215.456 556.287 214.136C553.518 212.816 551.248 211.158 549.477 209.162C547.706 207.134 546.354 205.089 545.42 203.028H544.503V214.909H524.219ZM544.358 177.818C544.358 182.229 544.97 186.077 546.193 189.361C547.417 192.645 549.188 195.205 551.506 197.04C553.824 198.843 556.641 199.744 559.957 199.744C563.306 199.744 566.139 198.827 568.457 196.991C570.776 195.124 572.53 192.548 573.722 189.264C574.945 185.948 575.557 182.133 575.557 177.818C575.557 173.536 574.961 169.769 573.77 166.517C572.579 163.265 570.824 160.722 568.506 158.886C566.188 157.051 563.338 156.134 559.957 156.134C556.609 156.134 553.776 157.019 551.457 158.79C549.171 160.561 547.417 163.072 546.193 166.324C544.97 169.576 544.358 173.407 544.358 177.818Z" class="libvue-logo-fill"/>
    <path d="M677.062 140.727L651.127 214.909H627.945L602.011 140.727H623.744L639.15 193.804H639.923L655.281 140.727H677.062Z" class="libvue-logo-fill"/>
    <path d="M735.161 183.324V140.727H755.735V214.909H735.982V201.435H735.21C733.535 205.781 730.75 209.275 726.854 211.915C722.991 214.555 718.274 215.875 712.704 215.875C707.745 215.875 703.383 214.748 699.616 212.494C695.849 210.241 692.903 207.037 690.778 202.884C688.685 198.73 687.622 193.756 687.59 187.96V140.727H708.164V184.29C708.196 188.669 709.371 192.13 711.69 194.673C714.008 197.217 717.115 198.489 721.011 198.489C723.49 198.489 725.808 197.925 727.965 196.798C730.122 195.639 731.861 193.933 733.181 191.679C734.533 189.425 735.193 186.64 735.161 183.324Z" class="libvue-logo-fill"/>
    <path d="M805.999 216.358C798.368 216.358 791.8 214.813 786.294 211.722C780.821 208.598 776.603 204.188 773.641 198.489C770.679 192.758 769.197 185.98 769.197 178.156C769.197 170.526 770.679 163.829 773.641 158.065C776.603 152.302 780.772 147.811 786.149 144.591C791.558 141.371 797.901 139.761 805.178 139.761C810.071 139.761 814.627 140.55 818.845 142.128C823.095 143.673 826.798 146.008 829.953 149.131C833.141 152.254 835.62 156.182 837.391 160.915C839.161 165.616 840.047 171.121 840.047 177.432V183.082H777.408V170.332H820.68C820.68 167.37 820.036 164.746 818.749 162.46C817.461 160.174 815.674 158.387 813.388 157.099C811.134 155.779 808.51 155.119 805.516 155.119C802.393 155.119 799.624 155.844 797.209 157.293C794.826 158.709 792.959 160.625 791.607 163.04C790.254 165.422 789.562 168.079 789.53 171.009V183.131C789.53 186.801 790.206 189.973 791.558 192.645C792.943 195.317 794.891 197.378 797.402 198.827C799.913 200.276 802.892 201 806.337 201C808.623 201 810.715 200.678 812.615 200.034C814.515 199.39 816.141 198.424 817.493 197.136C818.845 195.848 819.875 194.271 820.584 192.403L839.612 193.659C838.646 198.231 836.666 202.223 833.672 205.636C830.71 209.017 826.878 211.657 822.178 213.557C817.509 215.424 812.116 216.358 805.999 216.358Z" class="libvue-logo-fill"/>
</svg>
